{
  "accessors": [
    {
      "bufferView": 2,
      "componentType": 5126,
      "count": 65532,
      "max": [
        0.5,
        0.5,
        0.49166285991668701
      ],
      "min": [
        -0.5,
        -0.5,
        0.016242589801549911
      ],
      "type": "VEC3"
    },
    {
      "bufferView": 2,
      "byteOffset": 786384,
      "componentType": 5126,
      "count": 65532,
      "max": [
        0.99616724252700806,
        0.99644970893859863,
        0.99995803833007812
      ],
      "min": [
        -0.99166649580001831,
        -0.99477750062942505,
        -0.50523614883422852
      ],
      "type": "VEC3"
    },
    {
      "bufferView": 3,
      "componentType": 5126,
      "count": 65532,
      "max": [
        0.99998944997787476,
        0.99999219179153442,
        0.99476480484008789,
        1
      ],
      "min": [
        -0.99999105930328369,
        -0.99934303760528564,
        -0.99858468770980835,
        1
      ],
      "type": "VEC4"
    },
    {
      "bufferView": 1,
      "componentType": 5126,
      "count": 65532,
      "max": [
        0.9770200252532959,
        0.56821000576019287
      ],
      "min": [
        0.0038900000508874655,
        0.042470000684261322
      ],
      "type": "VEC2"
    },
    {
      "bufferView": 0,
      "componentType": 5125,
      "count": 252564,
      "max": [
        65531
      ],
      "min": [
        0
      ],
      "type": "SCALAR"
    },
    {
      "bufferView": 2,
      "byteOffset": 1572768,
      "componentType": 5126,
      "count": 65532,
      "max": [
        0.5,
        0.5,
        0.50680893659591675
      ],
      "min": [
        -0.5,
        -0.5,
        0.015092100016772747
      ],
      "type": "VEC3"
    },
    {
      "bufferView": 2,
      "byteOffset": 2359152,
      "componentType": 5126,
      "count": 65532,
      "max": [
        0.99533665180206299,
        0.99428081512451172,
        0.99999409914016724
      ],
      "min": [
        -0.99014467000961304,
        -0.99569237232208252,
        -0.20627541840076447
      ],
      "type": "VEC3"
    },
    {
      "bufferView": 3,
      "byteOffset": 1048512,
      "componentType": 5126,
      "count": 65532,
      "max": [
        0.99996930360794067,
        0.99999117851257324,
        0.99506211280822754,
        1
      ],
      "min": [
        -0.99882286787033081,
        -0.9999767541885376,
        -0.99560576677322388,
        -1
      ],
      "type": "VEC4"
    },
    {
      "bufferView": 1,
      "byteOffset": 524256,
      "componentType": 5126,
      "count": 65532,
      "max": [
        0.99567997455596924,
        0.5752599835395813
      ],
      "min": [
        0.0026799999177455902,
        0.0019499999471008778
      ],
      "type": "VEC2"
    },
    {
      "bufferView": 0,
      "byteOffset": 1010256,
      "componentType": 5125,
      "count": 246453,
      "max": [
        65531
      ],
      "min": [
        0
      ],
      "type": "SCALAR"
    },
    {
      "bufferView": 2,
      "byteOffset": 3145536,
      "componentType": 5126,
      "count": 65533,
      "max": [
        0.5,
        0.5,
        0.50621289014816284
      ],
      "min": [
        -0.5,
        -0.5,
        0.016779089346528053
      ],
      "type": "VEC3"
    },
    {
      "bufferView": 2,
      "byteOffset": 3931932,
      "componentType": 5126,
      "count": 65533,
      "max": [
        0.99646967649459839,
        0.99991971254348755,
        0.99999558925628662
      ],
      "min": [
        -0.99978649616241455,
        -0.99990099668502808,
        -0.91521662473678589
      ],
      "type": "VEC3"
    },
    {
      "bufferView": 3,
      "byteOffset": 2097024,
      "componentType": 5126,
      "count": 65533,
      "max": [
        0.99997329711914062,
        0.99999350309371948,
        0.99776411056518555,
        1
      ],
      "min": [
        -0.99999105930328369,
        -0.99961352348327637,
        -0.99697142839431763,
        -1
      ],
      "type": "VEC4"
    },
    {
      "bufferView": 1,
      "byteOffset": 1048512,
      "componentType": 5126,
      "count": 65533,
      "max": [
        0.99804002046585083,
        0.57375997304916382
      ],
      "min": [
        0.0019499999471008778,
        0.01042999979108572
      ],
      "type": "VEC2"
    },
    {
      "bufferView": 0,
      "byteOffset": 1996068,
      "componentType": 5125,
      "count": 177783,
      "max": [
        65532
      ],
      "min": [
        0
      ],
      "type": "SCALAR"
    },
    {
      "bufferView": 2,
      "byteOffset": 4718328,
      "componentType": 5126,
      "count": 54035,
      "max": [
        0.5,
        0.5,
        0.50421750545501709
      ],
      "min": [
        -0.5,
        -0.5,
        0.015092100016772747
      ],
      "type": "VEC3"
    },
    {
      "bufferView": 2,
      "byteOffset": 5366748,
      "componentType": 5126,
      "count": 54035,
      "max": [
        0.99963003396987915,
        0.99980580806732178,
        0.99997460842132568
      ],
      "min": [
        -0.99932688474655151,
        -0.99885636568069458,
        -0.9890245795249939
      ],
      "type": "VEC3"
    },
    {
      "bufferView": 3,
      "byteOffset": 3145552,
      "componentType": 5126,
      "count": 54035,
      "max": [
        0.99942469596862793,
        0.99999743700027466,
        0.99870336055755615,
        1
      ],
      "min": [
        -0.99900680780410767,
        -0.99979740381240845,
        -0.99974077939987183,
        -1
      ],
      "type": "VEC4"
    },
    {
      "bufferView": 1,
      "byteOffset": 1572776,
      "componentType": 5126,
      "count": 54035,
      "max": [
        0.99601000547409058,
        0.5752599835395813
      ],
      "min": [
        0.0023799999617040157,
        0.0083600003272294998
      ],
      "type": "VEC2"
    },
    {
      "bufferView": 0,
      "byteOffset": 2707200,
      "componentType": 5125,
      "count": 71271,
      "max": [
        54034
      ],
      "min": [
        0
      ],
      "type": "SCALAR"
    }
  ],
  "asset": {
    "extras": {
      "author": "ronnan (https://sketchfab.com/ronnan)",
      "license": "CC-BY-4.0 (http://creativecommons.org/licenses/by/4.0/)",
      "source": "https://sketchfab.com/models/fbd8fd40b51d40f5a7c0a7dc7526a192",
      "title": "Mountain peak"
    },
    "generator": "Sketchfab-3.19.3",
    "version": "2.0"
  },
  "bufferViews": [
    {
      "buffer": 0,
      "byteLength": 2992284,
      "byteOffset": 0,
      "name": "floatBufferViews",
      "target": 34963
    },
    {
      "buffer": 0,
      "byteLength": 2005056,
      "byteOffset": 2992284,
      "byteStride": 8,
      "name": "floatBufferViews",
      "target": 34962
    },
    {
      "buffer": 0,
      "byteLength": 6015168,
      "byteOffset": 4997340,
      "byteStride": 12,
      "name": "floatBufferViews",
      "target": 34962
    },
    {
      "buffer": 0,
      "byteLength": 4010112,
      "byteOffset": 11012508,
      "byteStride": 16,
      "name": "floatBufferViews",
      "target": 34962
    }
  ],
  "buffers": [
    {
      "byteLength": 15022620,
      "uri": "scene.bin"
    }
  ],
  "images": [
    {
      "uri": "textures/defaultMat_metallicRoughness.png"
    },
    {
      "uri": "textures/defaultMat_normal.png"
    },
    {
      "uri": "textures/defaultMat_baseColor.jpg"
    }
  ],
  "materials": [
    {
      "doubleSided": false,
      "emissiveFactor": [
        0.0012325383900000002,
        0.0034118121199999997,
        0.015426279690000001
      ],
      "name": "defaultMat",
      "normalTexture": {
        "index": 1,
        "scale": 1,
        "texCoord": 0
      },
      "occlusionTexture": {
        "index": 0,
        "strength": 1,
        "texCoord": 0
      },
      "pbrMetallicRoughness": {
        "baseColorFactor": [
          0.45903201220000001,
          0.45903201220000001,
          0.45903201220000001,
          1
        ],
        "baseColorTexture": {
          "index": 2,
          "texCoord": 0
        },
        "metallicFactor": 0,
        "roughnessFactor": 0.70903201220000001
      }
    }
  ],
  "meshes": [
    {
      "primitives": [
        {
          "attributes": {
            "NORMAL": 1,
            "POSITION": 0,
            "TANGENT": 2,
            "TEXCOORD_0": 3
          },
          "indices": 4,
          "material": 0,
          "mode": 4
        }
      ]
    },
    {
      "primitives": [
        {
          "attributes": {
            "NORMAL": 6,
            "POSITION": 5,
            "TANGENT": 7,
            "TEXCOORD_0": 8
          },
          "indices": 9,
          "material": 0,
          "mode": 4
        }
      ]
    },
    {
      "primitives": [
        {
          "attributes": {
            "NORMAL": 11,
            "POSITION": 10,
            "TANGENT": 12,
            "TEXCOORD_0": 13
          },
          "indices": 14,
          "material": 0,
          "mode": 4
        }
      ]
    },
    {
      "primitives": [
        {
          "attributes": {
            "NORMAL": 16,
            "POSITION": 15,
            "TANGENT": 17,
            "TEXCOORD_0": 18
          },
          "indices": 19,
          "material": 0,
          "mode": 4
        }
      ]
    }
  ],
  "nodes": [
    {
      "children": [
        1
      ],
      "name": "RootNode (gltf orientation matrix)",
      "rotation": [
        -0.70710678118654746,
        -0,
        -0,
        0.70710678118654757
      ]
    },
    {
      "children": [
        2
      ],
      "name": "RootNode (model correction matrix)"
    },
    {
      "children": [
        3,
        4,
        5,
        6
      ],
      "name": "Small_mountain7_low.OBJ.cleaner.materialmerger.gles"
    },
    {
      "mesh": 0,
      "name": ""
    },
    {
      "mesh": 1,
      "name": ""
    },
    {
      "mesh": 2,
      "name": ""
    },
    {
      "mesh": 3,
      "name": ""
    }
  ],
  "samplers": [
    {
      "magFilter": 9729,
      "minFilter": 9987,
      "wrapS": 10497,
      "wrapT": 10497
    }
  ],
  "scene": 0,
  "scenes": [
    {
      "name": "OSG_Scene",
      "nodes": [
        0
      ]
    }
  ],
  "textures": [
    {
      "sampler": 0,
      "source": 0
    },
    {
      "sampler": 0,
      "source": 1
    },
    {
      "sampler": 0,
      "source": 2
    }
  ]
}

